<?xml version="1.0" encoding="utf-8"?><svg viewBox="0 0 502.66 502.66" xmlns="http://www.w3.org/2000/svg" xmlns:xlink="http://www.w3.org/1999/xlink"><style>:root>svg{display:none}:root>svg:target{display:block}</style><svg viewBox="0 0 502.664 502.664" id="icon" xmlns="http://www.w3.org/2000/svg"><path d="M153.821 358.226L0 274.337v-46.463l153.821-83.414v54.574L46.636 250.523l107.185 53.431v54.272zm26.273 29.358L282.103 115.08h32.227L212.084 387.584h-31.99zm168.749-29.358v-54.272l107.164-52.999-107.164-52.59v-53.927l153.821 83.522v46.183l-153.821 84.083z"/></svg><svg viewBox="0 0 24 24" id="play_icon" xmlns="http://www.w3.org/2000/svg"><g clip-path="url(#ba)"><path d="M12 2C6.475 2 2 6.475 2 12s4.475 10 10 10 10-4.475 10-10S17.525 2 12 2zm-2 14.5v-9l6 4.5-6 4.5z"/></g><defs><clipPath id="ba"><path d="M0 0h24v24H0z"/></clipPath></defs></svg><svg viewBox="0 0 15 15" id="plus_icon" xmlns="http://www.w3.org/2000/svg"><circle cx="7.5" cy="7.5" r="7.5"/><path d="M12 7v1H3V7h9z"/><path d="M8 12H7V3h1v9z"/></svg><svg viewBox="0 0 24 24" id="search_icon" xmlns="http://www.w3.org/2000/svg"><path d="M11 19a8 8 0 100-16 8 8 0 000 16zm10 2l-4.35-4.35"/></svg></svg>